<?xml version="1.0" encoding="UTF-8"?>
<svg id="Camada_2" data-name="Camada 2" xmlns="http://www.w3.org/2000/svg" xmlns:xlink="http://www.w3.org/1999/xlink" viewBox="0 0 631.94 156.15">
  <defs>
    <style>
      .cls-1 {
        fill: url(#linear-gradient);
      }

      .cls-1, .cls-2, .cls-3 {
        stroke-width: 0px;
      }

      .cls-2, .cls-4 {
        fill: #232325;
      }

      .cls-3 {
        fill: url(#linear-gradient-2);
      }

      .cls-4 {
        font-family: Norwester-Regular, Norwester;
        font-size: 20.27px;
      }
    </style>
    <linearGradient id="linear-gradient" x1="82.41" y1="78.27" x2="82.41" y2="22.68" gradientUnits="userSpaceOnUse">
      <stop offset="0" stop-color="#242426"/>
      <stop offset="1" stop-color="#0d0e10"/>
    </linearGradient>
    <linearGradient id="linear-gradient-2" x1="81.25" y1="148.7" x2="81.25" y2="94.49" xlink:href="#linear-gradient"/>
  </defs>
  <g id="objects">
    <g>
      <g>
        <path class="cls-1" d="m146.95,69.05c-1.66-22.59-6.83-45.41-9.41-55.81-.83-3.31-3.61-5.78-7-6.18-12.64-1.53-32.15-7.06-49.16-7.06h-.25c-16.99,0-36.48,5.52-49.12,7.05-3.42.41-6.22,2.89-7.05,6.22-1.79,7.2-4.81,20.32-7.05,35.19-.3,2.01.57,4.03,2.26,5.17,7.43,5.03,28.47,17.24,58.39,24.16,21.97,5.09,44.29,6.06,59.09,3.29,5.71-1.07,9.72-6.24,9.3-12.03Zm-55.21-26.65c-1.44,1.27-2.2,3.15-2.2,5.07v17.02c0,2.32-1.88,4.21-4.21,4.21h-5.83c-2.32,0-4.21-1.89-4.21-4.21v-17.14c0-1.96-.91-3.78-2.36-5.1-3.24-2.93-5.11-7.34-4.54-12.17.76-6.42,5.98-11.6,12.4-12.32,8.53-.95,15.75,5.7,15.75,14.04,0,4.23-1.86,8.01-4.8,10.6Z"/>
        <path class="cls-3" d="m156.55,76.88c-1-.92-2.62.11-2.18,1.4,6.05,17.85-35.68,20.6-76.16,10.5C36.27,78.31,5.66,57.31,8.08,44.83c.11-.55.28-1.08.5-1.59.89-2,.1-2.79-1.84-1.76-3.7,1.97-6.05,4.54-6.55,7.73-1.35,8.51,4.33,17.7,14.98,26.37-.44,10.63.03,20.92,2.07,29.54.24,1.02.65,1.99,1.23,2.85,8.65,12.97,45.29,38.16,58.23,46.8,2.75,1.84,6.33,1.84,9.09,0,12.93-8.64,49.58-33.83,58.23-46.8.45-.67.79-1.4,1.03-2.16,9.98-2.99,16.58-7.9,17.33-14.64.63-5.68-1.24-10.08-5.82-14.29Z"/>
      </g>
      <g>
        <g>
          <g>
            <path class="cls-2" d="m230.31,71.38c0,3.53-.9,6.67-2.69,9.41-1.79,2.74-4.38,4.87-7.75,6.39-3.38,1.52-7.34,2.28-11.88,2.28-3.79,0-6.97-.27-9.54-.8s-5.25-1.46-8.03-2.79v-13.71c2.93,1.51,5.99,2.68,9.16,3.53,3.17.84,6.08,1.27,8.73,1.27,2.29,0,3.96-.4,5.03-1.19,1.06-.79,1.6-1.81,1.6-3.06,0-.78-.21-1.46-.64-2.04-.43-.58-1.12-1.17-2.06-1.77s-3.47-1.82-7.58-3.66c-3.71-1.69-6.5-3.32-8.36-4.91-1.86-1.58-3.23-3.4-4.13-5.45-.9-2.05-1.34-4.48-1.34-7.29,0-5.25,1.91-9.33,5.73-12.27,3.82-2.93,9.06-4.4,15.74-4.4,5.9,0,11.91,1.36,18.04,4.09l-4.71,11.88c-5.32-2.44-9.92-3.66-13.79-3.66-2,0-3.45.35-4.36,1.05-.91.7-1.36,1.57-1.36,2.61,0,1.12.58,2.12,1.73,3,1.16.88,4.29,2.49,9.41,4.83,4.91,2.21,8.32,4.58,10.23,7.11,1.91,2.53,2.86,5.72,2.86,9.56Z"/>
            <path class="cls-2" d="m239.11,88.68V31.73h15.47v56.95h-15.47Z"/>
            <path class="cls-2" d="m291.7,88.68l-11.65-41.02h-.35c.54,6.99.82,12.41.82,16.28v24.74h-13.63V31.73h20.49l11.88,40.44h.31l11.65-40.44h20.53v56.95h-14.14v-24.97c0-1.3.02-2.74.06-4.32.04-1.58.21-5.47.53-11.65h-.35l-11.49,40.94h-14.65Z"/>
            <path class="cls-2" d="m397.31,60.12c0,9.58-2.35,16.87-7.05,21.85-4.7,4.99-11.58,7.48-20.65,7.48s-15.78-2.51-20.55-7.52c-4.77-5.01-7.15-12.31-7.15-21.89s2.37-16.72,7.11-21.72c4.74-5,11.63-7.5,20.67-7.5s15.93,2.48,20.61,7.44c4.67,4.96,7.01,12.25,7.01,21.85Zm-39.19,0c0,11.01,3.83,16.52,11.49,16.52,3.9,0,6.78-1.34,8.67-4.01s2.82-6.84,2.82-12.5-.95-9.89-2.86-12.6c-1.91-2.71-4.76-4.07-8.55-4.07-7.71,0-11.57,5.56-11.57,16.67Z"/>
            <path class="cls-2" d="m444.84,71.38c0,3.53-.9,6.67-2.69,9.41-1.79,2.74-4.38,4.87-7.75,6.39-3.38,1.52-7.34,2.28-11.88,2.28-3.79,0-6.97-.27-9.54-.8s-5.25-1.46-8.03-2.79v-13.71c2.93,1.51,5.99,2.68,9.16,3.53,3.17.84,6.08,1.27,8.73,1.27,2.29,0,3.96-.4,5.03-1.19,1.06-.79,1.6-1.81,1.6-3.06,0-.78-.21-1.46-.64-2.04-.43-.58-1.12-1.17-2.06-1.77s-3.47-1.82-7.58-3.66c-3.71-1.69-6.5-3.32-8.36-4.91-1.86-1.58-3.23-3.4-4.13-5.45-.9-2.05-1.34-4.48-1.34-7.29,0-5.25,1.91-9.33,5.73-12.27,3.82-2.93,9.06-4.4,15.74-4.4,5.9,0,11.91,1.36,18.04,4.09l-4.71,11.88c-5.32-2.44-9.92-3.66-13.79-3.66-2,0-3.45.35-4.36,1.05-.91.7-1.36,1.57-1.36,2.61,0,1.12.58,2.12,1.73,3,1.16.88,4.29,2.49,9.41,4.83,4.91,2.21,8.32,4.58,10.23,7.11,1.91,2.53,2.86,5.72,2.86,9.56Z"/>
          </g>
          <g>
            <path class="cls-2" d="m466.54,88.61h-9.23l10.29-48.97h-14.76l1.75-7.99h38.88l-1.68,7.99h-14.84l-10.4,48.97Z"/>
            <path class="cls-2" d="m519.94,88.61h-30.23l12.04-56.95h30.23l-1.68,7.99h-21l-3.27,15.39h19.56l-1.6,7.91h-19.63l-3.74,17.76h21l-1.67,7.91Z"/>
            <path class="cls-2" d="m564.94,38.82c-4,0-7.57,1.16-10.71,3.47-3.14,2.31-5.66,5.68-7.54,10.11s-2.82,9.29-2.82,14.59c0,4.67,1.07,8.25,3.21,10.73,2.14,2.48,5.3,3.72,9.49,3.72,3.66,0,7.93-.88,12.82-2.65v7.99c-4.67,1.74-9.53,2.61-14.57,2.61-6.44,0-11.49-1.93-15.13-5.79-3.65-3.86-5.47-9.26-5.47-16.22s1.37-13.02,4.11-18.82c2.74-5.79,6.39-10.19,10.97-13.21,4.57-3.01,9.79-4.52,15.66-4.52s10.69,1.2,15.15,3.58l-3.66,7.6c-1.64-.88-3.38-1.64-5.22-2.26s-3.93-.93-6.27-.93Z"/>
            <path class="cls-2" d="m619.9,88.61h-9.27l5.45-25.67h-22.05l-5.42,25.67h-9.23l12.04-56.95h9.23l-4.95,23.29h22.05l4.95-23.29h9.23l-12.04,56.95Z"/>
          </g>
        </g>
        <g>
          <path class="cls-2" d="m196.62,108.58c1.91,0,2.92,1.01,2.92,2.92v2.15c0,.2-.1.32-.32.32h-2.11c-.2,0-.32-.12-.32-.32v-1.58c0-.53-.26-.81-.81-.81h-.97c-.51,0-.81.28-.81.81v2.8l4.82,1.58c.34.14.53.37.53.75v4.68c0,1.91-1.01,2.92-2.92,2.92h-2.27c-1.88,0-2.92-1.01-2.92-2.92v-2.13c0-.22.12-.32.32-.32h2.11c.22,0,.32.1.32.32v1.56c0,.55.3.81.81.81h.97c.53,0,.81-.26.81-.81v-2.7l-4.8-1.58c-.37-.12-.55-.37-.55-.75v-4.78c0-1.91,1.03-2.92,2.92-2.92h2.27Z"/>
          <path class="cls-2" d="m203.99,108.58c.2,0,.32.12.32.32v15.56c0,.2-.12.32-.32.32h-2.11c-.22,0-.32-.12-.32-.32v-15.56c0-.2.1-.32.32-.32h2.11Z"/>
          <path class="cls-2" d="m211.53,108.58c1.9,0,2.92,1.01,2.92,2.92v2.15c0,.2-.1.32-.32.32h-2.11c-.2,0-.32-.12-.32-.32v-1.58c0-.53-.26-.81-.81-.81h-.97c-.51,0-.81.28-.81.81v2.8l4.82,1.58c.34.14.53.37.53.75v4.68c0,1.91-1.01,2.92-2.92,2.92h-2.27c-1.88,0-2.92-1.01-2.92-2.92v-2.13c0-.22.12-.32.32-.32h2.11c.22,0,.32.1.32.32v1.56c0,.55.3.81.81.81h.97c.53,0,.81-.26.81-.81v-2.7l-4.8-1.58c-.36-.12-.55-.37-.55-.75v-4.78c0-1.91,1.03-2.92,2.92-2.92h2.27Z"/>
          <path class="cls-2" d="m223.45,108.58c.22,0,.32.12.32.32v2.03c0,.2-.1.32-.32.32h-2.35v13.21c0,.22-.1.32-.32.32h-2.11c-.2,0-.32-.1-.32-.32v-13.21h-2.35c-.2,0-.32-.12-.32-.32v-2.03c0-.2.12-.32.32-.32h7.46Z"/>
          <path class="cls-2" d="m233.28,110.93c0,.2-.08.34-.32.34h-5.07v4.05h3.87c.2,0,.32.12.32.34v2.01c0,.22-.12.34-.32.34h-3.87v4.09h5.07c.24,0,.32.1.32.32v2.03c0,.2-.08.32-.32.32h-7.46c-.18,0-.3-.12-.3-.32v-15.56c0-.2.12-.32.3-.32h7.46c.24,0,.32.12.32.32v2.03Z"/>
          <path class="cls-2" d="m246.25,108.58c.26,0,.41.14.41.41v15.4c0,.26-.14.41-.41.41h-1.88c-.26,0-.41-.14-.41-.41v-9.12h-.14l-2.01,9.16c-.06.24-.2.36-.45.36h-.99c-.24,0-.38-.12-.45-.36l-2.01-9.16h-.14v9.12c0,.26-.14.41-.41.41h-1.86c-.26,0-.41-.14-.41-.41v-15.4c0-.26.14-.41.41-.41h2.67c.24,0,.38.12.45.36l2.25,10.09,2.25-10.09c.06-.24.2-.36.45-.36h2.67Z"/>
          <path class="cls-2" d="m255.89,124.79c-.18,0-.28-.1-.32-.28l-.57-2.96h-3.61l-.55,2.96c-.04.18-.14.28-.32.28h-2.17c-.22,0-.32-.12-.26-.34l3.36-15.58c.04-.2.16-.28.34-.28h2.82c.18,0,.3.08.34.28l3.36,15.58c.04.22-.04.34-.28.34h-2.15Zm-2.69-12.67l-1.3,7.07h2.59l-1.3-7.07Z"/>
          <path class="cls-2" d="m267.65,108.58c.2,0,.32.12.32.32v15.56c0,.2-.12.32-.32.32h-2.11c-.22,0-.32-.12-.32-.32v-15.56c0-.2.1-.32.32-.32h2.11Z"/>
          <path class="cls-2" d="m278.33,108.58c.2,0,.32.12.32.32v15.56c0,.2-.12.32-.32.32h-2.01c-.18,0-.3-.08-.36-.26l-3.1-8.65h-.1v8.59c0,.2-.1.32-.32.32h-2.11c-.2,0-.32-.12-.32-.32v-15.56c0-.2.12-.32.32-.32h2.01c.18,0,.3.08.36.26l3.08,8.61h.12v-8.55c0-.2.1-.32.32-.32h2.11Z"/>
          <path class="cls-2" d="m288.05,108.58c.22,0,.32.12.32.32v2.03c0,.2-.1.32-.32.32h-2.35v13.21c0,.22-.1.32-.32.32h-2.11c-.2,0-.32-.1-.32-.32v-13.21h-2.35c-.2,0-.32-.12-.32-.32v-2.03c0-.2.12-.32.32-.32h7.46Z"/>
          <path class="cls-2" d="m297.88,110.93c0,.2-.08.34-.32.34h-5.07v4.05h3.87c.2,0,.32.12.32.34v2.01c0,.22-.12.34-.32.34h-3.87v4.09h5.07c.24,0,.32.1.32.32v2.03c0,.2-.08.32-.32.32h-7.46c-.18,0-.3-.12-.3-.32v-15.56c0-.2.12-.32.3-.32h7.46c.24,0,.32.12.32.32v2.03Z"/>
          <path class="cls-2" d="m299.51,111.5c0-1.91,1.01-2.92,2.92-2.92h2.67c1.88,0,2.92,1.01,2.92,2.92v2.11c0,.2-.12.32-.32.32h-2.03c-.22,0-.32-.12-.32-.32v-1.54c0-.53-.28-.81-.81-.81h-1.46c-.55,0-.81.28-.81.81v9.24c0,.55.28.81.81.81h1.46c.53,0,.81-.26.81-.81v-2.71h-1.05c-.22,0-.32-.12-.32-.32v-2.03c0-.22.1-.32.32-.32h3.4c.2,0,.32.1.32.32v5.63c0,1.91-1.03,2.92-2.92,2.92h-2.67c-1.91,0-2.92-1.01-2.92-2.92v-10.38Z"/>
          <path class="cls-2" d="m318.37,116.44c0,1.36-.51,2.25-1.48,2.67l1.4,5.31c.06.24-.06.36-.28.36h-2.11c-.2,0-.3-.1-.34-.28l-1.36-5.15h-1.4v5.11c0,.2-.12.32-.32.32h-2.11c-.2,0-.32-.12-.32-.32v-15.56c0-.2.12-.32.32-.32h5.09c1.91,0,2.92,1.01,2.92,2.92v4.94Zm-3.57.24c.53,0,.81-.28.81-.81v-3.81c0-.53-.28-.81-.81-.81h-2.01v5.43h2.01Z"/>
          <path class="cls-2" d="m327.41,124.79c-.18,0-.28-.1-.32-.28l-.57-2.96h-3.61l-.55,2.96c-.04.18-.14.28-.32.28h-2.17c-.22,0-.32-.12-.26-.34l3.36-15.58c.04-.2.16-.28.34-.28h2.82c.18,0,.3.08.34.28l3.36,15.58c.04.22-.04.34-.28.34h-2.15Zm-2.69-12.67l-1.3,7.07h2.59l-1.3-7.07Z"/>
          <path class="cls-2" d="m331.26,108.9c0-.2.1-.32.32-.32h4.86c1.91,0,2.92,1.03,2.92,2.94v10.35c0,1.91-1.01,2.92-2.92,2.92h-4.86c-.22,0-.32-.1-.32-.32v-15.56Zm4.62,13.21c.53,0,.81-.26.81-.81v-9.22c0-.55-.28-.83-.81-.83h-1.86v10.86h1.86Z"/>
          <path class="cls-2" d="m341.39,111.5c0-1.91,1.01-2.92,2.92-2.92h2.27c1.91,0,2.92,1.01,2.92,2.92v10.38c0,1.91-1.01,2.92-2.92,2.92h-2.27c-1.9,0-2.92-1.01-2.92-2.92v-10.38Zm4.68,10.68c.53,0,.81-.26.81-.81v-9.36c0-.53-.28-.81-.81-.81h-1.18c-.53,0-.81.28-.81.81v9.36c0,.55.28.81.81.81h1.18Z"/>
          <path class="cls-2" d="m356.59,108.9c0-.2.1-.32.32-.32h4.86c1.91,0,2.92,1.03,2.92,2.94v10.35c0,1.91-1.01,2.92-2.92,2.92h-4.86c-.22,0-.32-.1-.32-.32v-15.56Zm4.62,13.21c.53,0,.81-.26.81-.81v-9.22c0-.55-.28-.83-.81-.83h-1.86v10.86h1.86Z"/>
          <path class="cls-2" d="m374.81,110.93c0,.2-.08.34-.32.34h-5.07v4.05h3.87c.2,0,.32.12.32.34v2.01c0,.22-.12.34-.32.34h-3.87v4.09h5.07c.24,0,.32.1.32.32v2.03c0,.2-.08.32-.32.32h-7.46c-.18,0-.3-.12-.3-.32v-15.56c0-.2.12-.32.3-.32h7.46c.24,0,.32.12.32.32v2.03Z"/>
          <path class="cls-2" d="m393.05,108.58c.26,0,.41.14.41.41v15.4c0,.26-.14.41-.41.41h-1.88c-.26,0-.41-.14-.41-.41v-9.12h-.14l-2.01,9.16c-.06.24-.2.36-.45.36h-.99c-.24,0-.38-.12-.45-.36l-2.01-9.16h-.14v9.12c0,.26-.14.41-.41.41h-1.86c-.26,0-.41-.14-.41-.41v-15.4c0-.26.14-.41.41-.41h2.67c.24,0,.38.12.45.36l2.25,10.09,2.25-10.09c.06-.24.2-.36.45-.36h2.67Z"/>
          <path class="cls-2" d="m395.48,111.5c0-1.91,1.01-2.92,2.92-2.92h2.27c1.91,0,2.92,1.01,2.92,2.92v10.38c0,1.91-1.01,2.92-2.92,2.92h-2.27c-1.9,0-2.92-1.01-2.92-2.92v-10.38Zm4.68,10.68c.53,0,.81-.26.81-.81v-9.36c0-.53-.28-.81-.81-.81h-1.18c-.53,0-.81.28-.81.81v9.36c0,.55.28.81.81.81h1.18Z"/>
          <path class="cls-2" d="m413.94,108.58c.2,0,.32.12.32.32v15.56c0,.2-.12.32-.32.32h-2.01c-.18,0-.3-.08-.36-.26l-3.1-8.65h-.1v8.59c0,.2-.1.32-.32.32h-2.11c-.2,0-.32-.12-.32-.32v-15.56c0-.2.12-.32.32-.32h2.01c.18,0,.3.08.36.26l3.08,8.61h.12v-8.55c0-.2.1-.32.32-.32h2.11Z"/>
          <path class="cls-2" d="m418.73,108.58c.2,0,.32.12.32.32v15.56c0,.2-.12.32-.32.32h-2.11c-.22,0-.32-.12-.32-.32v-15.56c0-.2.1-.32.32-.32h2.11Z"/>
          <path class="cls-2" d="m428.46,108.58c.22,0,.32.12.32.32v2.03c0,.2-.1.32-.32.32h-2.35v13.21c0,.22-.1.32-.32.32h-2.11c-.2,0-.32-.1-.32-.32v-13.21h-2.35c-.2,0-.32-.12-.32-.32v-2.03c0-.2.12-.32.32-.32h7.46Z"/>
          <path class="cls-2" d="m430,111.5c0-1.91,1.01-2.92,2.92-2.92h2.27c1.9,0,2.92,1.01,2.92,2.92v10.38c0,1.91-1.01,2.92-2.92,2.92h-2.27c-1.91,0-2.92-1.01-2.92-2.92v-10.38Zm4.68,10.68c.53,0,.81-.26.81-.81v-9.36c0-.53-.28-.81-.81-.81h-1.18c-.53,0-.81.28-.81.81v9.36c0,.55.28.81.81.81h1.18Z"/>
          <path class="cls-2" d="m448.46,116.44c0,1.36-.51,2.25-1.48,2.67l1.4,5.31c.06.24-.06.36-.28.36h-2.11c-.2,0-.3-.1-.34-.28l-1.36-5.15h-1.4v5.11c0,.2-.12.32-.32.32h-2.11c-.2,0-.32-.12-.32-.32v-15.56c0-.2.12-.32.32-.32h5.09c1.9,0,2.92,1.01,2.92,2.92v4.94Zm-3.57.24c.53,0,.81-.28.81-.81v-3.81c0-.53-.28-.81-.81-.81h-2.01v5.43h2.01Z"/>
          <path class="cls-2" d="m457.49,124.79c-.18,0-.28-.1-.32-.28l-.57-2.96h-3.61l-.55,2.96c-.04.18-.14.28-.32.28h-2.17c-.22,0-.32-.12-.26-.34l3.36-15.58c.04-.2.16-.28.34-.28h2.82c.18,0,.3.08.34.28l3.36,15.58c.04.22-.04.34-.28.34h-2.15Zm-2.69-12.67l-1.3,7.07h2.59l-1.3-7.07Z"/>
          <path class="cls-2" d="m472.49,108.58c.26,0,.41.14.41.41v15.4c0,.26-.14.41-.41.41h-1.88c-.26,0-.41-.14-.41-.41v-9.12h-.14l-2.01,9.16c-.06.24-.2.36-.45.36h-.99c-.24,0-.39-.12-.45-.36l-2.01-9.16h-.14v9.12c0,.26-.14.41-.41.41h-1.86c-.26,0-.41-.14-.41-.41v-15.4c0-.26.14-.41.41-.41h2.67c.24,0,.39.12.45.36l2.25,10.09,2.25-10.09c.06-.24.2-.36.45-.36h2.67Z"/>
          <path class="cls-2" d="m483.01,110.93c0,.2-.08.34-.32.34h-5.07v4.05h3.87c.2,0,.32.12.32.34v2.01c0,.22-.12.34-.32.34h-3.87v4.09h5.07c.24,0,.32.1.32.32v2.03c0,.2-.08.32-.32.32h-7.46c-.18,0-.3-.12-.3-.32v-15.56c0-.2.12-.32.3-.32h7.46c.24,0,.32.12.32.32v2.03Z"/>
          <path class="cls-2" d="m493.37,108.58c.2,0,.32.12.32.32v15.56c0,.2-.12.32-.32.32h-2.01c-.18,0-.3-.08-.37-.26l-3.1-8.65h-.1v8.59c0,.2-.1.32-.32.32h-2.11c-.2,0-.32-.12-.32-.32v-15.56c0-.2.12-.32.32-.32h2.01c.18,0,.3.08.36.26l3.08,8.61h.12v-8.55c0-.2.1-.32.32-.32h2.11Z"/>
          <path class="cls-2" d="m503.09,108.58c.22,0,.32.12.32.32v2.03c0,.2-.1.32-.32.32h-2.35v13.21c0,.22-.1.32-.32.32h-2.11c-.2,0-.32-.1-.32-.32v-13.21h-2.35c-.2,0-.32-.12-.32-.32v-2.03c0-.2.12-.32.32-.32h7.46Z"/>
          <path class="cls-2" d="m504.63,111.5c0-1.91,1.01-2.92,2.92-2.92h2.27c1.91,0,2.92,1.01,2.92,2.92v10.38c0,1.91-1.01,2.92-2.92,2.92h-2.27c-1.9,0-2.92-1.01-2.92-2.92v-10.38Zm4.68,10.68c.53,0,.81-.26.81-.81v-9.36c0-.53-.28-.81-.81-.81h-1.18c-.53,0-.81.28-.81.81v9.36c0,.55.28.81.81.81h1.18Z"/>
          <path class="cls-2" d="m527.92,110.93c0,.2-.08.34-.32.34h-5.07v4.05h3.87c.2,0,.32.12.32.34v2.01c0,.22-.12.34-.32.34h-3.87v4.09h5.07c.24,0,.32.1.32.32v2.03c0,.2-.08.32-.32.32h-7.46c-.18,0-.3-.12-.3-.32v-15.56c0-.2.12-.32.3-.32h7.46c.24,0,.32.12.32.32v2.03Z"/>
          <path class="cls-2" d="m540.2,108.58c1.9,0,2.92,1.01,2.92,2.92v2.15c0,.2-.1.32-.32.32h-2.11c-.2,0-.32-.12-.32-.32v-1.58c0-.53-.26-.81-.81-.81h-.97c-.51,0-.81.28-.81.81v2.8l4.82,1.58c.34.14.53.37.53.75v4.68c0,1.91-1.01,2.92-2.92,2.92h-2.27c-1.88,0-2.92-1.01-2.92-2.92v-2.13c0-.22.12-.32.32-.32h2.11c.22,0,.32.1.32.32v1.56c0,.55.3.81.81.81h.97c.53,0,.81-.26.81-.81v-2.7l-4.8-1.58c-.37-.12-.55-.37-.55-.75v-4.78c0-1.91,1.03-2.92,2.92-2.92h2.27Z"/>
          <path class="cls-2" d="m553.23,110.93c0,.2-.08.34-.32.34h-5.07v4.05h3.87c.2,0,.32.12.32.34v2.01c0,.22-.12.34-.32.34h-3.87v4.09h5.07c.24,0,.32.1.32.32v2.03c0,.2-.08.32-.32.32h-7.46c-.18,0-.3-.12-.3-.32v-15.56c0-.2.12-.32.3-.32h7.46c.24,0,.32.12.32.32v2.03Z"/>
          <path class="cls-2" d="m554.85,111.5c0-1.91,1.01-2.92,2.92-2.92h2.68c1.88,0,2.92,1.01,2.92,2.92v2.11c0,.2-.12.32-.32.32h-2.03c-.22,0-.32-.12-.32-.32v-1.54c0-.53-.28-.81-.81-.81h-1.46c-.55,0-.81.28-.81.81v9.24c0,.55.28.81.81.81h1.46c.53,0,.81-.26.81-.81v-2.71h-1.05c-.22,0-.32-.12-.32-.32v-2.03c0-.22.1-.32.32-.32h3.4c.2,0,.32.1.32.32v5.63c0,1.91-1.03,2.92-2.92,2.92h-2.68c-1.9,0-2.92-1.01-2.92-2.92v-10.38Z"/>
          <path class="cls-2" d="m573.09,108.58c.22,0,.41.18.41.41v12.89c0,1.91-1.01,2.92-2.92,2.92h-2.27c-1.91,0-2.92-1.01-2.92-2.92v-12.89c0-.22.18-.41.4-.41h1.95c.22,0,.41.18.41.41v12.32c0,.55.28.81.81.81h1.05c.53,0,.81-.26.81-.81v-12.32c0-.22.18-.41.41-.41h1.86Z"/>
          <path class="cls-2" d="m583.85,116.44c0,1.36-.51,2.25-1.48,2.67l1.4,5.31c.06.24-.06.36-.28.36h-2.11c-.2,0-.3-.1-.34-.28l-1.36-5.15h-1.4v5.11c0,.2-.12.32-.32.32h-2.11c-.2,0-.32-.12-.32-.32v-15.56c0-.2.12-.32.32-.32h5.09c1.9,0,2.92,1.01,2.92,2.92v4.94Zm-3.57.24c.53,0,.81-.28.81-.81v-3.81c0-.53-.28-.81-.81-.81h-2.01v5.43h2.01Z"/>
          <path class="cls-2" d="m592.89,124.79c-.18,0-.28-.1-.32-.28l-.57-2.96h-3.61l-.55,2.96c-.04.18-.14.28-.32.28h-2.17c-.22,0-.32-.12-.26-.34l3.36-15.58c.04-.2.16-.28.34-.28h2.82c.18,0,.3.08.34.28l3.36,15.58c.04.22-.04.34-.28.34h-2.15Zm-2.69-12.67l-1.3,7.07h2.59l-1.3-7.07Z"/>
          <path class="cls-2" d="m605.27,108.58c.2,0,.32.12.32.32v15.56c0,.2-.12.32-.32.32h-2.01c-.18,0-.3-.08-.36-.26l-3.1-8.65h-.1v8.59c0,.2-.1.32-.32.32h-2.11c-.2,0-.32-.12-.32-.32v-15.56c0-.2.12-.32.32-.32h2.01c.18,0,.3.08.36.26l3.08,8.61h.12v-8.55c0-.2.1-.32.32-.32h2.11Z"/>
          <path class="cls-2" d="m615.75,113.68c0,.2-.12.32-.32.32h-2.03c-.22,0-.32-.12-.32-.32v-1.62c0-.53-.28-.81-.81-.81h-1.05c-.55,0-.81.28-.81.81v9.24c0,.55.28.81.81.81h1.05c.53,0,.81-.26.81-.81v-1.62c0-.2.1-.32.32-.32h2.03c.2,0,.32.12.32.32v2.19c0,1.91-1.03,2.92-2.92,2.92h-2.27c-1.9,0-2.94-1.01-2.94-2.92v-10.38c0-1.91,1.03-2.92,2.94-2.92h2.27c1.88,0,2.92,1.01,2.92,2.92v2.19Z"/>
          <path class="cls-2" d="m625.19,124.79c-.18,0-.28-.1-.32-.28l-.57-2.96h-3.61l-.55,2.96c-.04.18-.14.28-.32.28h-2.17c-.22,0-.32-.12-.26-.34l3.36-15.58c.04-.2.16-.28.34-.28h2.82c.18,0,.3.08.34.28l3.36,15.58c.04.22-.04.34-.28.34h-2.15Zm-2.7-12.67l-1.3,7.07h2.59l-1.3-7.07Z"/>
        </g>
        <text class="cls-4" transform="translate(604.43 121.77) rotate(90)"><tspan x="0" y="0">-</tspan></text>
      </g>
    </g>
  </g>
</svg>